<svg xmlns="http://www.w3.org/2000/svg" xmlns:xlink="http://www.w3.org/1999/xlink" viewBox="0 0 209.71 195.51"><defs><style>.cls-1,.cls-2,.cls-3,.cls-40,.cls-42,.cls-45,.cls-46,.cls-48,.cls-49,.cls-50,.cls-51,.cls-52{opacity:0.26;}.cls-1,.cls-2,.cls-3,.cls-35,.cls-36,.cls-40,.cls-42,.cls-45,.cls-46,.cls-48,.cls-49,.cls-50,.cls-51,.cls-52{isolation:isolate;}.cls-1{fill:url(#Névtelen_színátmenet_659);}.cls-2{fill:url(#Névtelen_színátmenet_18);}.cls-3{fill:url(#Névtelen_színátmenet_185);}.cls-4{fill:#e6f0da;}.cls-5{fill:#52aba0;}.cls-6{fill:#c6d4d2;}.cls-7{fill:#3f8e82;}.cls-8{fill:#8aa0a4;}.cls-9{fill:#ffd524;}.cls-10{fill:#ffa727;}.cls-11{fill:#c9c9c9;}.cls-12{fill:#a0a0a0;}.cls-13{fill:#6bc6b9;}.cls-14,.cls-36{fill:#a3ecd5;}.cls-15{fill:#e29f91;}.cls-16{fill:#cc7e71;}.cls-17{fill:#fccbbe;}.cls-18{fill:#fff6f5;}.cls-19{fill:#504566;}.cls-20{fill:#381f1d;}.cls-21{fill:#fff;}.cls-22{fill:#99584f;}.cls-23{fill:#7e7394;}.cls-24{fill:#702f2d;}.cls-25{fill:#7c7c7c;}.cls-26{fill:#357c70;}.cls-27{fill:#ef9020;}.cls-28{fill:#fff7d4;}.cls-29{fill:url(#Névtelen_színátmenet_2);}.cls-30{fill:#56408b;}.cls-31{fill:#413068;}.cls-32{fill:#7866a2;}.cls-33{fill:#bbb3d1;}.cls-34{fill:#73c9bc;}.cls-35{fill:#87c3dd;opacity:0.5;}.cls-36{opacity:0.69;}.cls-37{fill:#7fe2d1;}.cls-38{fill:#aeb5b4;}.cls-39{fill:#a4f4e5;}.cls-40{fill:url(#Névtelen_színátmenet_783);}.cls-41{fill:url(#Névtelen_színátmenet_562);}.cls-42{fill:url(#Névtelen_színátmenet_659-2);}.cls-43{fill:url(#Névtelen_színátmenet_782);}.cls-44{fill:url(#Névtelen_színátmenet_562-2);}.cls-45{fill:url(#Névtelen_színátmenet_659-3);}.cls-46{fill:url(#Névtelen_színátmenet_185-2);}.cls-47{fill:url(#Névtelen_színátmenet_562-3);}.cls-48{fill:url(#Névtelen_színátmenet_185-3);}.cls-49{fill:url(#Névtelen_színátmenet_185-4);}.cls-50{fill:url(#Névtelen_színátmenet_240);}.cls-51{fill:url(#Névtelen_színátmenet_659-4);}.cls-52{fill:url(#Névtelen_színátmenet_783-2);}.cls-53{fill:url(#Névtelen_színátmenet_562-4);}.cls-54{fill:url(#Névtelen_színátmenet_562-5);}.cls-55{fill:url(#Névtelen_színátmenet_562-6);}.cls-56{fill:url(#Névtelen_színátmenet_562-7);}.cls-57{fill:url(#Névtelen_színátmenet_562-8);}.cls-58{fill:url(#Névtelen_színátmenet_562-9);}</style><linearGradient id="Névtelen_színátmenet_659" x1="137.29" y1="161.16" x2="114.27" y2="161.16" gradientTransform="translate(209.71 195.99) rotate(180)" gradientUnits="userSpaceOnUse"><stop offset="0" stop-color="#6e5da5"/><stop offset="0.33" stop-color="#eac885"/><stop offset="1" stop-color="#fec55e"/></linearGradient><linearGradient id="Névtelen_színátmenet_18" x1="135.16" y1="161.56" x2="112.14" y2="161.56" gradientTransform="translate(209.71 195.99) rotate(180)" gradientUnits="userSpaceOnUse"><stop offset="0" stop-color="#e967cd"/><stop offset="0.33" stop-color="#ef83ac"/><stop offset="1" stop-color="#fec55e"/></linearGradient><linearGradient id="Névtelen_színátmenet_185" x1="-3303.1" y1="16.51" x2="-3176.66" y2="16.51" gradientTransform="matrix(1, 0, 0, -1, 3386.37, 198.33)" gradientUnits="userSpaceOnUse"><stop offset="0" stop-color="#6e5da5"/><stop offset="0.33" stop-color="#9c71a8"/><stop offset="1" stop-color="#fec55e"/></linearGradient><linearGradient id="Névtelen_színátmenet_2" x1="69.47" y1="92.15" x2="129.96" y2="97.45" gradientTransform="translate(209.71 195.99) rotate(180)" gradientUnits="userSpaceOnUse"><stop offset="0" stop-color="#623fe9"/><stop offset="0.17" stop-color="#6d49e8"/><stop offset="0.7" stop-color="#8c65e5"/><stop offset="1" stop-color="#976fe4"/></linearGradient><linearGradient id="Névtelen_színátmenet_783" x1="168.98" y1="149.2" x2="139.98" y2="149.2" gradientTransform="translate(209.71 195.99) rotate(180)" gradientUnits="userSpaceOnUse"><stop offset="0" stop-color="#fec55e"/><stop offset="0.67" stop-color="#eac885"/><stop offset="1" stop-color="#6e5da5"/></linearGradient><linearGradient id="Névtelen_színátmenet_562" x1="167.24" y1="144.03" x2="139.98" y2="144.03" gradientTransform="translate(209.71 195.99) rotate(180)" gradientUnits="userSpaceOnUse"><stop offset="0" stop-color="#5d4b9a"/><stop offset="0.16" stop-color="#9067a9"/><stop offset="0.43" stop-color="#bea879"/><stop offset="0.77" stop-color="#edc76e"/><stop offset="1" stop-color="#fab840"/></linearGradient><linearGradient id="Névtelen_színátmenet_659-2" x1="194.84" y1="131.86" x2="158.83" y2="131.86" xlink:href="#Névtelen_színátmenet_659"/><linearGradient id="Névtelen_színátmenet_782" x1="190.87" y1="125.3" x2="162.07" y2="125.3" gradientTransform="translate(209.71 195.99) rotate(180)" gradientUnits="userSpaceOnUse"><stop offset="0" stop-color="#6e5fa7"/><stop offset="0.33" stop-color="#c39dc1"/><stop offset="1" stop-color="#f8cf42"/></linearGradient><linearGradient id="Névtelen_színátmenet_562-2" x1="258.54" y1="181.94" x2="265.14" y2="181.94" gradientTransform="translate(299.93 198.17) rotate(180)" xlink:href="#Névtelen_színátmenet_562"/><linearGradient id="Névtelen_színátmenet_659-3" x1="161.22" y1="191.62" x2="166.81" y2="191.62" xlink:href="#Névtelen_színátmenet_659"/><linearGradient id="Névtelen_színátmenet_185-2" x1="175.73" y1="46.02" x2="181.31" y2="46.02" gradientTransform="translate(209.71 195.99) rotate(180)" xlink:href="#Névtelen_színátmenet_185"/><linearGradient id="Névtelen_színátmenet_562-3" x1="240.23" y1="89.19" x2="253.05" y2="89.19" gradientTransform="translate(299.93 198.17) rotate(180)" xlink:href="#Névtelen_színátmenet_562"/><linearGradient id="Névtelen_színátmenet_185-3" x1="153.46" y1="101.18" x2="137.56" y2="101.18" gradientTransform="translate(209.71 195.99) rotate(180)" xlink:href="#Névtelen_színátmenet_185"/><linearGradient id="Névtelen_színátmenet_185-4" x1="192.54" y1="85.07" x2="164.35" y2="85.07" gradientTransform="translate(209.71 195.99) rotate(180)" xlink:href="#Névtelen_színátmenet_185"/><linearGradient id="Névtelen_színátmenet_240" x1="140.63" y1="69.8" x2="124.18" y2="69.8" gradientTransform="translate(209.71 195.99) rotate(180)" gradientUnits="userSpaceOnUse"><stop offset="0" stop-color="#6e5da5"/><stop offset="0.33" stop-color="#9c71a1"/><stop offset="1" stop-color="#fec55e"/></linearGradient><linearGradient id="Névtelen_színátmenet_659-4" x1="190.87" y1="133.98" x2="156.36" y2="133.98" xlink:href="#Névtelen_színátmenet_659"/><linearGradient id="Névtelen_színátmenet_783-2" x1="166.04" y1="154.11" x2="137.85" y2="154.11" xlink:href="#Névtelen_színátmenet_783"/><linearGradient id="Névtelen_színátmenet_562-4" x1="-3332.25" y1="175.87" x2="-3324.55" y2="175.87" gradientTransform="matrix(1, 0, 0, -1, 3386.17, 193.37)" xlink:href="#Névtelen_színátmenet_562"/><linearGradient id="Névtelen_színátmenet_562-5" x1="207.42" y1="161.6" x2="214.02" y2="161.6" gradientTransform="translate(299.93 198.17) rotate(180)" xlink:href="#Névtelen_színátmenet_562"/><linearGradient id="Névtelen_színátmenet_562-6" x1="-3309.22" y1="160.75" x2="-3301.52" y2="160.75" gradientTransform="matrix(1, 0, 0, -1, 3386.17, 193.37)" xlink:href="#Névtelen_színátmenet_562"/><linearGradient id="Névtelen_színátmenet_562-7" x1="-3331.17" y1="48.63" x2="-3328.68" y2="48.63" gradientTransform="matrix(1, 0, 0, -1, 3386.17, 193.37)" xlink:href="#Névtelen_színátmenet_562"/><linearGradient id="Névtelen_színátmenet_562-8" x1="-3386.22" y1="70.82" x2="-3380.64" y2="70.82" gradientTransform="matrix(1, 0, 0, -1, 3386.17, 193.37)" xlink:href="#Névtelen_színátmenet_562"/><linearGradient id="Névtelen_színátmenet_562-9" x1="-3386.22" y1="139.54" x2="-3380.64" y2="139.54" gradientTransform="matrix(1, 0, 0, -1, 3386.17, 193.37)" xlink:href="#Névtelen_színátmenet_562"/></defs><g id="Réteg_2" data-name="Réteg 2"><g id="Réteg_1" data-name="Réteg 1"><path class="cls-1" d="M74.22,35.34A2.12,2.12,0,0,0,74.93,37L94.69,47.84c.46.26.82,0,.82-.48L93.66,34.48a1.85,1.85,0,0,0-.83-1.43L73.28,21.8c-.46-.26-.83-.05-.83.48Z"/><path class="cls-2" d="M76.35,34.94a2.15,2.15,0,0,0,.71,1.64L96.82,47.47c.46.26.82,0,.82-.48L95.79,34.05A1.88,1.88,0,0,0,95,32.62L75.4,21.37c-.45-.26-.82,0-.82.48Z"/><ellipse class="cls-3" cx="146.49" cy="181.82" rx="63.22" ry="13.69" transform="translate(-0.29 0.23) rotate(-0.09)"/><path class="cls-4" d="M108.38,72.6c-2.49-7.44-6.24-21.68-6.24-21.68l7.31-.72,9.27,21,15.14,11.21h0c0,8.72-5,12.37-5,12.37a55.76,55.76,0,0,1-9.56-8l-5.86-6.13-3.52-4A28.47,28.47,0,0,1,108.38,72.6Z"/><path class="cls-5" d="M109.92,76.6a28.2,28.2,0,0,1-1.56-4l.19-.13a8.28,8.28,0,0,1,4.86,6,5.45,5.45,0,0,1,.12,1.39,4.18,4.18,0,0,1-.09.71l-3.52-4Z"/><path class="cls-6" d="M113.41,78.49l11.75,8.69a25,25,0,0,0,8.73-4.85,20.19,20.19,0,0,1-.72,5.36,13.67,13.67,0,0,1-4.32,7,35.28,35.28,0,0,1-5.55-4.19h0l-4-3.78-5.77-6.84A5.45,5.45,0,0,0,113.41,78.49Z"/><path class="cls-7" d="M111.41,77.05l2,1.44a5.45,5.45,0,0,1,.12,1.39Z"/><path class="cls-8" d="M128.29,91.84l3.46-5.15,1.43,1a13.67,13.67,0,0,1-4.32,7,35.28,35.28,0,0,1-5.55-4.19Z"/><path class="cls-4" d="M118.88,180.83c-1-5.3,5-13.42,5-13.42l-9.22-9.57c-4.83-5.1-10.06-10.79-11.68-13.17-.05-.06-.12-.12-.12-.17l-.32-.52c-2.54-4.36-2.4-10-2.4-10.15h0c2.33-3.15,25.52-13,25.52-13,1.69-29.66,8.24-38.57,8.24-38.57h0l7.22-1.66.69-.16,17.4-4L161.31,91l.31,2.42-2.7,24.32-1.73,10.83-.27,1.66.21,2.1,2.41,24.39,9.42,4.14L183,167a10.77,10.77,0,0,1,1.12,3.92c.9,6.75-1.87,16.52-1.87,16.52-4.83-3.35-7-13.9-7-13.9l-7.89-2.17-10.85-3-6.91-1.9-.67-1.59-10.55-25-4.24-.28L115.48,143l8.87,10.33,12,14.15-3,2.29-14.47,11.07Z"/><path class="cls-6" d="M103.28,144c-.94-1.22-1.94-8.68-1.94-9V135h0c7.56-7,24.62-10.37,24.79-10.37v.26c-.17,0-17.08,3.26-24.62,10.26.1.81,1,7.62,1.88,8.81l13.27,14.47-.19.18C116,158.05,104.22,145.26,103.28,144Zm47.09,20.51h0c-4.2-6.77-8.64-30.24-8.64-30.47H142c0,.23,4.41,23.56,8.58,30.34l18.15,6-.08.25Z"/><path class="cls-6" d="M102.86,144.56l-.32-.52c-2.54-4.36-2.4-10-2.4-10.15h0s3.61-.19,4.21.72,1.32,8.67.81,9.45-2.18.67-2.18.67S102.9,144.61,102.86,144.56Zm46.7,21.88,7.49,2.06s1.91-2.78,1.65-3.27-4.32-3.89-5.19-3.89a1.9,1.9,0,0,0-1.24.4ZM147.18,112l-18.52-1.6.57,1.45L149.16,114l-.68-20.74-1.41-.64Zm12.06-35.48s-8.74,7.66-15.74,8.61c-5.84.79-8.75-1.86-9.57-2.79Z"/><path class="cls-8" d="M141.15,80.67l.69-.16c-1.91,3.42-8.33,16.54-6.2,36.42l-.52.06C133.06,97.68,139,84.66,141.15,80.67Z"/><path class="cls-6" d="M130.92,120.67s.59,5,4.26,4.92a5.62,5.62,0,0,0,5-3Zm-2.51,15.26-.5-5.76,1.51,3.5a13.45,13.45,0,0,0,9.62,3.76l-.7,2.44-4.24-.28L115.48,143l8.89,10.33,12,14.15-3,2.29-24-29.3Z"/><path class="cls-6" d="M149.47,129.28l.53-1.07s-7-3.57-11.34-4.66-13-2.72-13-2.72l.12-1.7,26.56,1,5.44-29.06-.89-7.37L161.31,91l.31,2.42-2.7,24.32-2,12.49,2.62,26.49,9.42,4.14L183,167a10.64,10.64,0,0,1,1.17,3.88l-27.6-11.2-4.06-30.56Z"/><path class="cls-8" d="M150,126.39l7.24,2.18-.27,1.66.21,2.1L150,126.39Z"/><path class="cls-9" d="M125.83,119.18l.23-3.4a43.88,43.88,0,0,1,5,0,65.26,65.26,0,0,1,9.45,1.08,67.36,67.36,0,0,1,11.83,3.36c1.9.74,3.81,1.59,5.81,2.59a16.73,16.73,0,0,1-1.2,7.47s-16.15-10.74-31.29-9.35Z"/><path class="cls-10" d="M125.82,119.18l4.45-.65.83-2.8a65.26,65.26,0,0,1,9.45,1.08,7.8,7.8,0,0,1,.32,3.49l10,3.32,1.47-3.45c1.9.74,3.81,1.59,5.81,2.59a16.73,16.73,0,0,1-1.2,7.47s-16.15-10.74-31.29-9.35Z"/><path class="cls-5" d="M167.23,171.4a12.2,12.2,0,0,0,1.93-6.49,18.48,18.48,0,0,0-.26-4l14,6.14c2.22,3.79,1.26,11.25.31,16h0c-.49,2.56-1,4.34-1,4.34-4.83-3.35-7-13.9-7-13.9Zm-48.35,9.43c-1-5.3,5-13.36,5-13.36l-9.22-9.57a16.78,16.78,0,0,1,5.9-3.77,12.64,12.64,0,0,1,3.75-.81l12,14.15-14.23,10.89-3.23,2.47Z"/><path class="cls-11" d="M144,108.82l-17.11-1c-.58-7.91,3.63-17.52,3.63-17.52,5.85-2.79,13.85,0,13.85,0Z"/><path class="cls-12" d="M144,108.82l-17.11-1,1.81,2.57,18.52,1.6-.11-19.38-2.74-2.28Z"/><path class="cls-5" d="M101.14,47.9h0s-2.24-2.5-2.35-3.5a20,20,0,0,1,0-2.19l.26-4.55s-1.83-4.42-1.62-5.49a3.42,3.42,0,0,1,1.2-1.81l2.1,3.93s-1-5-.22-6a5.55,5.55,0,0,1,2.56-1.47l.81,6.35c0-.15,1.25-5,2.41-5.61a3.4,3.4,0,0,1,2.43-.12l-1.63,9.65c.08-.2,1.33-3.14,2.55-4a4.42,4.42,0,0,1,3.25-.33l-2.08,6.14L109.22,47l.89,4.74-8.15.91Z"/><path class="cls-8" d="M145.34,131.63a16.61,16.61,0,0,0-7,8.24C138.72,133.6,145.34,131.63,145.34,131.63Zm3.28-2,6-.82C152,128.22,148.62,129.64,148.62,129.64Zm-21.09-.77a29.33,29.33,0,0,0,6.57,10.72C128.85,136.87,127.53,128.87,127.53,128.87Z"/><path class="cls-5" d="M129.23,72.55a40,40,0,0,0,16,1.13c1.7-.19,3.34-.45,4.88-.75a62.26,62.26,0,0,0,11.33-3.3l-2.21,6.85c-15.91,9.76-25,6-25.33,5.83h0Z"/><path class="cls-13" d="M129.26,72.51a40,40,0,0,0,16,1.13h0l-8.56,2.22-.34,3.73h-1.25l-1-3.73-1.91-.33,1.7,6.78h0Z"/><path class="cls-14" d="M118.13,57.84c-4-9.26,1.85-18.18,1.85-18.18l-2.19-2.18-1.21-1.21a5.1,5.1,0,0,1-3,1.07h0a1.67,1.67,0,0,1-.88-.36c-1.44-1.15,2.94-7.6,5.09-7.23a1.23,1.23,0,0,1,.37.12,1,1,0,0,1,.28.23c.94,1.12-.72,4.36-.72,4.36l2,.32,3.07.48c13.1-14.27,40.93-7.95,46.54,7.3,2.87,7.75.75,14.65-2,19.55a31.81,31.81,0,0,1-5.88,7.57S144,77.09,129.27,72.6a38.08,38.08,0,0,1-6.6-7A38.17,38.17,0,0,1,118.13,57.84Z"/><path class="cls-15" d="M143.62,70.31h0l.26-2.18,11.21-5.79.06,4.46.07,4.91a60.44,60.44,0,0,1-12,2.16Z"/><path class="cls-16" d="M143.88,68.11l11.21-5.79.06,4.46c-1.72,1.21-6.77,4.74-8.63,5.53a11.07,11.07,0,0,1-2.89-2h0Z"/><path class="cls-17" d="M131.23,61.81c1-2.56,1.16-7.2,1.16-10h0V49.48a49.32,49.32,0,0,0,7.54-3.63l-.3,1.58-.12.64-.32,1.74h.16l.37-.07a34.85,34.85,0,0,0,7.6-2.61l-1,1.6h0l-.49.8-.11.19-1,1.61H145a8.89,8.89,0,0,0,.88-.13,13.46,13.46,0,0,0,1.52-.37,30,30,0,0,0,6.88-3.3c.93,2.81-1.07,7.52-1.07,7.52l1.87.94s1.73-4.72,4.24-4.72c1.47,0,1.82,1.67,1.67,3.53a13.8,13.8,0,0,1-.91,3.75A4.33,4.33,0,0,1,156.27,61a13.9,13.9,0,0,1-2.39,4.2A18.67,18.67,0,0,1,146,70.61a21.08,21.08,0,0,1-4.09-.7h0l-.32-.09-.3-.09A16.52,16.52,0,0,1,131.23,61.81Z"/><path class="cls-15" d="M146.33,48.76l-.49.8a31.49,31.49,0,0,1-6.19,2l.07-1.82a35,35,0,0,0,7.57-2.55l-1,1.6Zm7.81,10.05c-.28-1.65-2.59-3.22-2.59-3.22l.52-4.27a16.49,16.49,0,0,1-6.68,1.32l.47-1.44a13.46,13.46,0,0,0,1.52-.37,30,30,0,0,0,6.88-3.3c.93,2.81-1.07,7.52-1.07,7.52l1.87.94s1.73-4.72,4.24-4.72c1.47,0,1.82,1.67,1.67,3.53a13.8,13.8,0,0,1-.91,3.75A4.33,4.33,0,0,1,156.27,61a13.9,13.9,0,0,1-2.39,4.2A18.67,18.67,0,0,1,146,70.61C151.72,67.22,154.42,60.46,154.14,58.81Zm-14.7-10.72c-4.76,2.43-7.09,2.22-7.09,2.22V49.5a49.32,49.32,0,0,0,7.54-3.63l-.3,1.58Z"/><path class="cls-18" d="M138.72,64c.17,1.24,2.15,4,5,2.81a6.69,6.69,0,0,0,3.62-4.21C142.13,67.47,138.72,64,138.72,64Z"/><path class="cls-19" d="M161,54.84c.07-.12,2.62-4.49,2.18-6.23s-6-5.74-6-5.74c-1.81-13.35-21.81-8.79-21.81-8.79l3.35,1.21s-6.58,1.74-9.09,6.3a11.32,11.32,0,0,0-.55,9.2l2.09-4a7.11,7.11,0,0,0,1.26,5c0-1.39-.05-2.33-.05-2.33a49.32,49.32,0,0,0,7.54-3.63l-.74,4a33.52,33.52,0,0,0,8.1-2.63l-2.53,4.19c4.27-.3,9.54-3.82,9.54-3.82.93,2.81-1.07,7.52-1.07,7.52l1.87.94s1.73-4.72,4.24-4.72c1.47,0,1.82,1.67,1.67,3.53Z"/><path class="cls-18" d="M144.07,53.4a.65.65,0,0,1,.78-.49l1.05.23a.66.66,0,0,1,.5.74l-.47,3.18a.65.65,0,0,1-.71.56l-1.12-.11H144a.63.63,0,0,1-.5-.75l.54-3.3A.11.11,0,0,1,144.07,53.4Zm-9.14.39-.28,2.85v.06a.37.37,0,0,0,.4.35h.76a.38.38,0,0,0,.36-.34l.28-2.93a.28.28,0,0,0,0-.09.37.37,0,0,0-.42-.31l-.77.12A.37.37,0,0,0,134.93,53.79Z"/><path class="cls-15" d="M138.78,57.68a4,4,0,0,1,3.44,2.61h0c-.15.08-2.68,1.53-3.5,1.38a1.68,1.68,0,0,1-.76-.42A6.55,6.55,0,0,1,136.81,60h0Z"/><path class="cls-16" d="M138.86,60.62a27.11,27.11,0,0,0,3.36-.33c-.15.08-2.68,1.53-3.5,1.38a1.68,1.68,0,0,1-.76-.42A6.55,6.55,0,0,1,136.81,60,14.3,14.3,0,0,0,138.86,60.62Z"/><path class="cls-18" d="M137.59,60l1.27-2.28-2,2.32h0a7.88,7.88,0,0,0,2,.63A3.12,3.12,0,0,1,137.59,60Z"/><path class="cls-20" d="M144.11,53a.66.66,0,0,1,.82-.45l1,.23a.66.66,0,0,1,.51.74L146,56.72a.66.66,0,0,1-.72.56l-1.12-.11h0a.67.67,0,0,1-.55-.76l.54-3.31A.24.24,0,0,1,144.11,53Zm-9.15.46-.28,2.85v.06a.37.37,0,0,0,.4.35h.76a.38.38,0,0,0,.36-.34l.28-2.92v-.1a.38.38,0,0,0-.43-.31l-.77.12A.37.37,0,0,0,135,53.48Z"/><path class="cls-21" d="M144.07,55.32c-.23,0-.45.29-.49.71s.12.76.34.79.48-.29.48-.71S144.3,55.34,144.07,55.32Zm-8.95,0c-.18,0-.36.23-.39.56s.09.61.27.63.38-.23.38-.56S135.3,55.38,135.12,55.36Z"/><path class="cls-16" d="M156.84,56.4a4.05,4.05,0,0,1,1,.69c.81.65,0,1.56,0,1.56a2.53,2.53,0,0,0,1.88-2.25,4.24,4.24,0,0,0-.49-3.15C157.85,53.46,156.84,56.4,156.84,56.4Z"/><path class="cls-22" d="M156.67,56.81a5.48,5.48,0,0,0,0,.81,4,4,0,0,0,.2.77c.06-.25.11-.51.15-.77a2.42,2.42,0,0,0,.12-.57,2,2,0,0,1,.4.1.89.89,0,0,1,.41.28.57.57,0,0,1,.08.25,1.6,1.6,0,0,1,0,.31,2.33,2.33,0,0,1-.19.65,2.13,2.13,0,0,0,.36-.6,1.22,1.22,0,0,0,.08-.78,1.57,1.57,0,0,0-.47-.64,4,4,0,0,0-.49-.3v-.15l.24-.67a5.57,5.57,0,0,1,1.67-2.26,2.37,2.37,0,0,0-1.39.6,3.83,3.83,0,0,0-.94,1.35l-.14.39a1.53,1.53,0,0,0-.1.41A4.48,4.48,0,0,0,156.67,56.81Z"/><path class="cls-23" d="M129.51,48.36a19.18,19.18,0,0,1,.7-2.43,15.93,15.93,0,0,1,2.35-4.42,8.2,8.2,0,0,1,.81-1l.45-.43.47-.42a11.17,11.17,0,0,1,2.08-1.37,12.13,12.13,0,0,1,2.36-.87l1.23-.26c.21,0,.42-.06.63-.08l.64-.08a11.92,11.92,0,0,0-5,1,10.61,10.61,0,0,0-4,3.21,15.12,15.12,0,0,0-1.37,2.19,16.67,16.67,0,0,0-1,2.4,17,17,0,0,0-.81,5A18.71,18.71,0,0,1,129.51,48.36Zm3.08-.17.28-1.21a12.76,12.76,0,0,1,.91-2.28,10.08,10.08,0,0,1,1.36-2l.4-.46.45-.42.23-.22.24-.19L137,41a8.65,8.65,0,0,0-2,1.55l-.21.23-.2.25-.38.5-.33.53-.3.55a10.55,10.55,0,0,0-.87,2.35,9.7,9.7,0,0,0-.31,2.51A9.73,9.73,0,0,1,132.59,48.19Zm9.14-5.41a21.09,21.09,0,0,0,3.19-1.1,17.48,17.48,0,0,0,3-1.64,12.72,12.72,0,0,0,2.46-2.29,19.88,19.88,0,0,1-2.66,2l-.71.42-.36.2-.37.19-.74.37-.75.35-3.1,1.17-3.22.9A16.5,16.5,0,0,0,141.73,42.78Zm7,3.26a15.21,15.21,0,0,0,2.6-2.87,10.49,10.49,0,0,0,1-1.68L151.12,43l-1.27,1.43-2.6,2.82A12,12,0,0,0,148.77,46ZM141,48.61a16.15,16.15,0,0,0,1.76-1.38c.56-.53,1.11-1,1.63-1.53A14.88,14.88,0,0,0,145.82,44l-.75.82-.79.79-1.65,1.49-1.72,1.41-.88.68-.88.68Zm6.46,1.66,2.64-1.4a19.64,19.64,0,0,0,2.42-1.76,11.14,11.14,0,0,0,2-2.22l-.48.57-.12.14-.14.13-.26.26-.26.27-.28.25-.57.48A22.32,22.32,0,0,1,150,48.68l-2.59,1.45-1.34.65-1.36.61A21.85,21.85,0,0,0,147.48,50.27Zm9,3.09.94-2.21a19.94,19.94,0,0,0,.67-2.32,10,10,0,0,0,.23-2.39,23,23,0,0,1-.58,2.31l-.17.56-.19.56L157,51l-.83,2.22-.85,2.24A15.77,15.77,0,0,0,156.46,53.36Zm3.45-1.92c.15-.28.36-.55.5-.83l.46-.82a6.28,6.28,0,0,1,.52-.75,1.1,1.1,0,0,1,.15-.16.28.28,0,0,1,.15-.08s.15.11.15.25a4.65,4.65,0,0,1,.13.9,4.9,4.9,0,0,1,.06.94v1.87c.07-.62.11-1.25.12-1.88A8.12,8.12,0,0,0,162,49a2.44,2.44,0,0,0-.1-.24.43.43,0,0,0-.11-.12.26.26,0,0,0-.19,0,.72.72,0,0,0-.26.14,1,1,0,0,0-.17.19,4.25,4.25,0,0,0-.51.81,12.62,12.62,0,0,0-.76,1.73Z"/><path class="cls-24" d="M143,66.4a7.19,7.19,0,0,0,4.33-3.81,13.19,13.19,0,0,1-8.58,1.4S140,67.22,143,66.4Z"/><path class="cls-25" d="M126.85,107.79l1.81,2.57,18.52,1.6L144,108.82Z"/><path class="cls-7" d="M149.12,79.13l1-6.2a62.26,62.26,0,0,0,11.33-3.3l-2.21,6.85c-15.91,9.76-25.05,6-25.33,5.83C139.11,83.79,149.12,79.13,149.12,79.13Z"/><ellipse class="cls-26" cx="134.91" cy="118.52" rx="5.92" ry="4.93" transform="translate(5.89 243.43) rotate(-85.37)"/><ellipse class="cls-5" cx="134.22" cy="117.75" rx="5.92" ry="4.93" transform="matrix(0.08, -1, 1, 0.08, 6.01, 242.03)"/><path class="cls-13" d="M130.2,121.44a6.78,6.78,0,0,1,1.06-8.3,4.46,4.46,0,0,1,4-1.15,4.47,4.47,0,0,0-3.54,1.18,6.77,6.77,0,0,0-1.05,8.29,4.62,4.62,0,0,0,3,2.19A4.57,4.57,0,0,1,130.2,121.44Z"/><ellipse class="cls-27" cx="133.98" cy="117.99" rx="2.38" ry="2.88" transform="translate(-0.84 0.96) rotate(-0.41)"/><ellipse class="cls-9" cx="133.26" cy="117.52" rx="2.38" ry="2.88" transform="translate(-0.84 0.96) rotate(-0.41)"/><path class="cls-28" d="M131.32,119.25a3.31,3.31,0,0,1,.46-4,2.09,2.09,0,0,1,1.4-.57,2.13,2.13,0,0,0-1.09.54,3.31,3.31,0,0,0-.46,4,2.26,2.26,0,0,0,2,1.14A2.2,2.2,0,0,1,131.32,119.25Z"/><path class="cls-13" d="M130.26,118.94a.57.57,0,0,1-.76-.3.83.83,0,0,1,.19-1l.1-.06a.6.6,0,0,1,.77.3.84.84,0,0,1-.19,1A.3.3,0,0,1,130.26,118.94Zm-.18-1.91a.34.34,0,0,1-.45-.19.51.51,0,0,1,.12-.62l.07,0a.36.36,0,0,1,.46.19.5.5,0,0,1-.12.62A.2.2,0,0,1,130.08,117Z"/><path class="cls-28" d="M131.82,118.51a.49.49,0,0,1-.64-.27.71.71,0,0,1,.16-.87l.08,0a.5.5,0,0,1,.66.25.7.7,0,0,1-.16.87A.53.53,0,0,1,131.82,118.51Zm-.18-1.62a.29.29,0,0,1-.37-.17.42.42,0,0,1,.09-.54l.06,0a.31.31,0,0,1,.39.16.43.43,0,0,1-.09.53Z"/><path class="cls-15" d="M144.86,67.72a2,2,0,0,1-1.53-.06,4.15,4.15,0,0,0,2.13-1.21S145.46,67.38,144.86,67.72Z"/><path class="cls-19" d="M160.13,41.54l-1.93-2.06-1,3.4Z"/><path class="cls-19" d="M160.8,44.66l.37-1.65-4-.13Z"/><path class="cls-8" d="M119.47,74.43l-.75-3.28A3.45,3.45,0,0,0,119.47,74.43Zm37.1,85.29,3-3C159.18,159,156.57,159.72,156.57,159.72Zm-47.2-19.21,6.11,2.48A7.59,7.59,0,0,1,109.37,140.51Z"/><path class="cls-5" d="M102.54,144a11.48,11.48,0,0,1-.82-1.6l-.47-1.24-.43-1.49-.33-1.56a5.26,5.26,0,0,1-.13-.83,22.66,22.66,0,0,1-.22-2.47v-.92h0s2.54,0,3.3.68,1.65,8.12.76,9a2.11,2.11,0,0,1-1.66.43Z"/><path class="cls-13" d="M100.15,134.76l3.31,1-3.09,1.52A23.35,23.35,0,0,1,100.15,134.76Zm.35,3.35,3.47.64-3.14.92Zm.75,3,2.89.72-2.42.52Z"/><path class="cls-6" d="M118.7,71.15,121,72.81l-1.52,1.62ZM102.56,52.57l.77,2.87,7.42-2.27-.64-1.44Z"/><path class="cls-7" d="M169.22,164.9a18.48,18.48,0,0,0-.26-4L183,167c2.22,3.79,1.26,11.25.31,16l-1.61-13.18Zm-37.79,2.78-10.84-13.55a12.64,12.64,0,0,1,3.75-.81l12,14.15-14.23,10.89ZM102.62,43c-.08-3.4,4.47-5.88,4.47-5.88A29,29,0,0,0,102.62,43Zm-1,7.54,3.18-2.89-3.63.3Zm1.73-21.93,0,7.17.62-2.58Zm-3.38,4.21.71,3.69.1-2.17Z"/><path class="cls-14" d="M147.62,78.32l-4.64.55.66-2.19,4-.49Z"/><path class="cls-7" d="M147.62,78.32l-4.64.55.29.42,4.92-.45-.11-2.07-.42-.58Z"/><path class="cls-13" d="M135.09,80.7l1.16.06v-.52l-1.14,0Z"/><path class="cls-10" d="M132.59,91.24a1.32,1.32,0,0,1,1.13,1.47L132,104.45a1.78,1.78,0,0,1-1.8,1.56h-.11a2,2,0,0,1-1.79-2.2,48.1,48.1,0,0,1,3-11.84,1.2,1.2,0,0,1,1.09-.74h.21Z"/><path class="cls-9" d="M132.21,91a1.22,1.22,0,0,1,1,1.39l-1.87,11.47a1.84,1.84,0,0,1-1.81,1.55h0a1.51,1.51,0,0,1-.3,0,1.82,1.82,0,0,1-1.53-2.09,47,47,0,0,1,3.18-11.58A1.19,1.19,0,0,1,132,91h0Z"/><path class="cls-29" d="M80.51,95.72a1,1,0,0,1-.43-.89l0-.57,22.77-9.87a6.57,6.57,0,0,1,6.64.54l29,20.36a3.13,3.13,0,0,1-.54,5.43l-22.2,7.89a2,2,0,0,1-1.8-.23Z"/><path class="cls-30" d="M80.13,94.24l22.87-11a6.62,6.62,0,0,1,6.64.54l29,20.36a3.13,3.13,0,0,1-.54,5.43l-22.2,7.89a2,2,0,0,1-1.8-.23Z"/><path class="cls-31" d="M80.52,94.27l22.74-11,29.46,20.66a2.81,2.81,0,0,1,.92,1.13,2.71,2.71,0,0,1-1.39,3.55l-20.18,7Z"/><path class="cls-32" d="M77.87,89.61c-.09,1,.26,2.67,1.08,3.24l36.16,24.67.59-.33a.74.74,0,0,0,.36-.57l-1.12-25.31a3.58,3.58,0,0,0-1.34-2.86l-35-24.27a1.85,1.85,0,0,0-1.37-.29l-.52.1Z"/><path class="cls-30" d="M77.38,90c-.09,1,.26,2.67,1.08,3.24l35.68,24c.82.57,1.56.22,1.64-.78l-1.34-24.78a3.5,3.5,0,0,0-1.34-2.85L77.88,64.22a1.07,1.07,0,0,0-.66-.24,1,1,0,0,0-1,1Z"/><path class="cls-33" d="M90.93,90.65a7,7,0,0,0,3.34,4.56c1.45.67,2.36-.3,2-2.15a7.06,7.06,0,0,0-3.34-4.56C91.45,87.84,90.54,88.8,90.93,90.65Z"/><path class="cls-5" d="M148.89,164.9s3.25-3.34,3.9-3.34,5.36,3.25,5.14,4a22.29,22.29,0,0,1-1.46,2.78l-6.91-1.9Z"/><path class="cls-13" d="M151,166.83l-1.43-.39-.3-.73,3.63-2.88Zm3.55-2.74-.86,3.48-1.94-.53Zm2.14,1.13-.64,3-1.41-.39Z"/><path class="cls-8" d="M126.73,126.08l-.6-2.61A3,3,0,0,0,126.73,126.08Z"/><path class="cls-34" d="M101.14,47.91h.15s.27-3.73.21-3.86a14.86,14.86,0,0,0-2.7-1.82,20,20,0,0,0,0,2.19C98.91,45.47,101.14,47.91,101.14,47.91Z"/><path class="cls-35" d="M146.72,66.72c16.46-5.17,22.1-12.85,22.1-12.85a27.19,27.19,0,0,1-1.49,8.24,31.81,31.81,0,0,1-5.88,7.57S144,77.09,129.27,72.6a38.08,38.08,0,0,1-6.6-7C125.51,67.25,133.72,70.82,146.72,66.72Z"/><path class="cls-4" d="M148.85,86.22c.8-.83,6.86-4.36,10.34-1.88a4.89,4.89,0,0,1,1.4,1.63,20.6,20.6,0,0,1,.77,11c-2.34,10.8-13.07,15.24-14.16,15.67l-18.28,10.17a14.66,14.66,0,0,1-3.71-5.8,9.7,9.7,0,0,1-.49-3.63L142,102.81l5.2-15.13h0A17.57,17.57,0,0,0,148.85,86.22Z"/><path class="cls-6" d="M156.55,83.51a7,7,0,0,1,1,.26,10.67,10.67,0,0,0-4.08,2.58,10,10,0,0,0-1.26,1.57l-8,17.81-19,11.28a9.7,9.7,0,0,1-.49-3.63L142,102.81l5.2-15.13h0C148.48,86.37,152.33,82.75,156.55,83.51Z"/><path class="cls-5" d="M122.19,113.91l4.36-1.7a20.1,20.1,0,0,0,.89,3.43,17.77,17.77,0,0,0,1.25,2.78,12.32,12.32,0,0,0,2.36,3.15l-4.58,2.56s-7.46,6.25-7.9,6.52-4.59-4-4.59-4-3.48-3.48-3.79-4.25L108,115.87a4,4,0,0,1,4.76.29,23.07,23.07,0,0,1,1.3,2.33l4-1.74h0c-.15-.07-2.84-1.51-3.48-2.65-.55-1,.59-2.54,1-3.06h0l.09-.11h0Z"/><path class="cls-8" d="M144.21,105.73,142,102.84A4,4,0,0,1,144.21,105.73Z"/><path class="cls-7" d="M112.67,116.22a23.07,23.07,0,0,1,1.3,2.33l4-1.74-5.61,3.88-1.74-4.11s-1.35-1.31-2.68-.65A4,4,0,0,1,112.67,116.22Z"/><path class="cls-7" d="M115.72,113.74a14.83,14.83,0,0,0,2.26,3.07c-.15-.07-2.84-1.51-3.48-2.65-.55-1,.59-2.54,1-3.06A2.42,2.42,0,0,0,115.72,113.74Zm-.73,14,2.23,0-4.58-2.36Zm11.54-15.45a20.1,20.1,0,0,0,.89,3.43h0l-2.36,1.32L122.17,114Z"/><path class="cls-34" d="M131,121.65l-4.58,2.56s-7.45,6.27-7.9,6.52l6.27-8.83,3.85-3.4A12.32,12.32,0,0,0,131,121.65Z"/><path class="cls-36" d="M120,51.5c3.25,1.63,11.28-14.08,7.45-15.68C122.72,33.83,116.76,49.87,120,51.5Zm1,5.86c1.26,0,.53-4.93-.92-4.25C118.4,53.92,119.78,57.36,121,57.36Zm-7.73-21.53c.86.07,2.43-2.9,1.34-3C114,32.77,112.45,35.76,113.31,35.83Z"/><path class="cls-35" d="M118.16,29.87l.28.23c.94,1.12-.72,4.36-.72,4.36l2,.32a7.82,7.82,0,0,1-2,2.69l-1.21-1.21a5.1,5.1,0,0,1-3,1.07C117,35,118.16,29.87,118.16,29.87Z"/><path class="cls-37" d="M134.5,96.05l.32-2,1.79,0,1.09,0,1.77,0,2.84,0-.15,5.78v.43l-1.09,0-1.6,0-3.13-.09-2.47-.07Z"/><path class="cls-38" d="M134.82,94l-.95,6.1h-.19l.95-6.38,7.5.15.18.25Z"/><path class="cls-39" d="M137.7,94.08l1.77,0,2.69,5.83v.43l-1.09,0Zm-3.2,2,.32-2,1.79,0,2.85,6.23-3.13-.09Z"/><path class="cls-40" d="M43,47.4a2.67,2.67,0,0,0,.9,2.07L68.82,63.18c.54.32,1,0,1-.61L67.49,46.34a2.37,2.37,0,0,0-1-1.8L41.78,30.39c-.54-.33-1-.06-1,.6Z"/><path class="cls-41" d="M69.82,62.57c0,.66-.46.93-1,.61L43.92,49.34a2.67,2.67,0,0,1-.9-2.07l-.46-3.42a2.62,2.62,0,0,0,2-1.32c.35-.67.48-1.57,1.17-1.85,1-.39,1.77.75,2.22,1.68a9,9,0,0,0,2,3,4,4,0,0,0,3.31,1.06c1.35-.24,2.6-1.42,3.91-1,1,.31,1.46,1.37,2.14,2.13,1.6,1.81,4.35,2,6.74,1.66A14.12,14.12,0,0,1,67.87,49l1.95,13.58Z"/><path class="cls-42" d="M17.72,64.89a3.33,3.33,0,0,0,1.1,2.6l30.9,17c.72.41,1.29.07,1.29-.75l-2.9-20.16a2.91,2.91,0,0,0-1.3-2.23L16.22,43.75c-.71-.41-1.29-.07-1.29.75Z"/><path class="cls-43" d="M28.55,72.84,25.2,71,23.72,58.41,27,60.35Zm-4.83-2.69L22.22,60l-3.3-2,1.47,10.39Zm9,.84-3.29-1.91.62,4.58,3.34,1.84Zm4-3.36-3.29-1.94,1.44,10.62,3.34,1.84ZM47.12,79.34l-3.3-1.94.57,4.17,3.33,1.84ZM41.45,71.1l-3.3-1.94,1.42,9.76,3.34,1.84Z"/><path class="cls-44" d="M34.88,11.36a.25.25,0,0,1,.41-.24L40.16,14a.94.94,0,0,1,.41.71l.92,6.4a.25.25,0,0,1-.41.24l-5-2.68a1,1,0,0,1-.36-.81Z"/><path class="cls-45" d="M42.9.24c0-.2.15-.31.34-.2l4.13,2.42a.82.82,0,0,1,.35.6l.78,5.42a.22.22,0,0,1-.35.2L43.94,6.41a.86.86,0,0,1-.3-.69Z"/><path class="cls-46" d="M28.61,145.85a.22.22,0,0,1,.35-.2l4.13,2.42a.8.8,0,0,1,.35.6l.77,5.42a.21.21,0,0,1-.34.2L29.66,152a.88.88,0,0,1-.3-.69Z"/><path class="cls-47" d="M47,99.52a.5.5,0,0,1,.8-.46l9.46,5.55a1.77,1.77,0,0,1,.8,1.38l1.78,12.42c0,.47-.35.72-.79.47l-9.66-5.2a2.08,2.08,0,0,1-.7-1.59Z"/><path class="cls-48" d="M57.6,95.15a1.46,1.46,0,0,0,.49,1.13l13.65,7.52c.31.18.57,0,.57-.33L71,94.57a1.33,1.33,0,0,0-.58-1L57,85.8c-.32-.18-.57,0-.57.33Z"/><path class="cls-49" d="M19.46,111.53a2.59,2.59,0,0,0,.87,2l24.18,13.32c.55.32,1,.06,1-.59L43.24,110.5a2.26,2.26,0,0,0-1-1.75L18.32,95c-.55-.32-1,0-1,.59Z"/><path class="cls-50" d="M70.5,126.54a1.48,1.48,0,0,0,.51,1.17l14.12,7.78c.33.19.59,0,.59-.34l-1.29-9.27a1.34,1.34,0,0,0-.59-1l-14-8c-.32-.19-.59,0-.59.34Z"/><path class="cls-51" d="M21.55,62.75a3.19,3.19,0,0,0,1.07,2.46L52.27,81.53c.68.38,1.23.06,1.23-.73L50.72,61.49a2.78,2.78,0,0,0-1.28-2.14L20.14,42.49c-.68-.39-1.24-.07-1.24.72Z"/><path class="cls-52" d="M45.84,42.49a2.61,2.61,0,0,0,.88,2L70.91,57.81c.55.32,1,0,1-.59L69.64,41.45a2.26,2.26,0,0,0-1-1.75L44.72,25.94c-.55-.32-1-.06-1,.58Z"/><path class="cls-53" d="M61.64,19.44A8,8,0,0,0,58,13.17a2.81,2.81,0,0,0-2.85-.23,2.82,2.82,0,0,0-1.22,2.6,8,8,0,0,0,3.64,6.27,3.53,3.53,0,0,0,1.73.52A2.11,2.11,0,0,0,60.42,22a2.83,2.83,0,0,0,1.22-2.6ZM60,21.22A1.91,1.91,0,0,1,58,21a7.05,7.05,0,0,1-3.17-5.43,2,2,0,0,1,.76-1.8,1.37,1.37,0,0,1,.66-.16,2.59,2.59,0,0,1,1.27.39,7.16,7.16,0,0,1,3.18,5.45A2,2,0,0,1,60,21.22Z"/><path class="cls-54" d="M86,31.7a.25.25,0,0,1,.41-.24l4.87,2.86a.94.94,0,0,1,.41.71l.92,6.4a.25.25,0,0,1-.41.24l-5-2.68a1,1,0,0,1-.36-.81Z"/><path class="cls-55" d="M81.09,28.32A2.51,2.51,0,0,0,77,30.68,8,8,0,0,0,80.65,37a3.54,3.54,0,0,0,1.74.52,2.08,2.08,0,0,0,1.11-.3,2.82,2.82,0,0,0,1.22-2.59A8,8,0,0,0,81.09,28.32Zm2.71,6.27a1.62,1.62,0,0,1-2.69,1.57,7.1,7.1,0,0,1-3.18-5.48,2,2,0,0,1,.77-1.8,1.38,1.38,0,0,1,.66-.17,2.71,2.71,0,0,1,1.27.4,7.18,7.18,0,0,1,3.17,5.48Z"/><path class="cls-56" d="M57.72,145.34a2.64,2.64,0,0,0-1.18-2,.81.81,0,0,0-1.31.77,2.57,2.57,0,0,0,1.17,2,1.06,1.06,0,0,0,.57.17.58.58,0,0,0,.36-.1.92.92,0,0,0,.39-.84Zm-.31,0a.52.52,0,0,1-.87.49,2.28,2.28,0,0,1-1-1.77.63.63,0,0,1,.25-.58.4.4,0,0,1,.22-.06,1,1,0,0,1,.41.13,2.34,2.34,0,0,1,1,1.78Z"/><path class="cls-57" d="M3.13,119.44A1.83,1.83,0,0,0,1.59,119a1.81,1.81,0,0,0-1.46,2.13,5.81,5.81,0,0,0,2.63,4.55,2.45,2.45,0,0,0,1.26.38,1.47,1.47,0,0,0,.81-.21A2,2,0,0,0,5.72,124,5.87,5.87,0,0,0,3.13,119.44ZM4.5,125.3a1.36,1.36,0,0,1-1.4-.17,5.11,5.11,0,0,1-2.31-4,1.43,1.43,0,0,1,.56-1.31,1,1,0,0,1,.48-.12,2,2,0,0,1,.92.29,5.19,5.19,0,0,1,2.3,4A1.43,1.43,0,0,1,4.5,125.3Z"/><path class="cls-58" d="M3,50.71a1.83,1.83,0,0,0-1.48-.38A1.8,1.8,0,0,0,0,52.43,5.81,5.81,0,0,0,2.66,57a2.45,2.45,0,0,0,1.26.38,1.57,1.57,0,0,0,.81-.22,2,2,0,0,0,.88-1.88A5.85,5.85,0,0,0,3,50.71Zm2,4.55a1.43,1.43,0,0,1-.55,1.33A1.4,1.4,0,0,1,3,56.42a5.12,5.12,0,0,1-2.3-4,1.43,1.43,0,0,1,.56-1.31A.94.94,0,0,1,1.72,51a2.17,2.17,0,0,1,.93.27,5.19,5.19,0,0,1,2.3,4Z"/></g></g></svg>